<?xml version="1.0" standalone="no"?>
<!DOCTYPE svg PUBLIC "-//W3C//DTD SVG 20010904//EN"
 "http://www.w3.org/TR/2001/REC-SVG-20010904/DTD/svg10.dtd">
<svg version="1.0" xmlns="http://www.w3.org/2000/svg"
 width="900.000000pt" height="900.000000pt" viewBox="0 0 900.000000 900.000000"
 preserveAspectRatio="xMidYMid meet">

<g transform="translate(0.000000,900.000000) scale(0.100000,-0.100000)"
fill="#000000" stroke="none">
<path d="M0 4500 l0 -4500 4500 0 4500 0 0 4500 0 4500 -4500 0 -4500 0 0
-4500z m8500 2250 l0 -1750 -143 0 -144 0 -17 108 c-82 510 -293 1041 -588
1481 -420 624 -1036 1120 -1733 1394 -891 350 -1859 350 -2750 0 -957 -376
-1732 -1151 -2108 -2108 -96 -245 -174 -526 -213 -767 l-17 -108 -144 0 -143
0 0 1750 0 1750 4000 0 4000 0 0 -1750z m-3535 971 c451 -70 850 -213 1224
-440 753 -457 1292 -1207 1485 -2067 59 -261 70 -375 70 -714 0 -339 -11 -453
-70 -714 -275 -1224 -1236 -2185 -2460 -2460 -261 -59 -375 -70 -714 -70 -339
0 -453 11 -714 70 -1224 275 -2185 1236 -2460 2460 -59 261 -70 375 -70 714 0
339 11 453 70 714 298 1328 1397 2332 2744 2510 180 24 179 24 475 21 226 -2
307 -7 420 -24z m-4161 -3828 c82 -511 293 -1042 588 -1482 511 -760 1302
-1318 2184 -1540 775 -195 1559 -145 2299 146 957 376 1732 1151 2108 2108 96
245 174 526 213 768 l17 107 144 0 143 0 0 -1750 0 -1750 -4000 0 -4000 0 0
1750 0 1750 143 0 144 0 17 -107z"/>
<path d="M3130 4444 l0 -2046 863 5 c912 5 974 8 1195 56 182 40 351 112 511
218 102 68 251 212 311 302 243 363 263 885 46 1255 -48 82 -206 246 -287 299
-116 75 -294 150 -413 175 -22 4 -41 13 -43 19 -2 6 33 34 79 61 232 140 384
334 440 560 26 102 30 315 9 422 -58 298 -234 490 -563 614 -237 89 -473 105
-1515 106 l-633 0 0 -2046z m1603 1565 c134 -12 264 -45 342 -87 27 -15 75
-52 106 -82 90 -89 125 -208 116 -395 -10 -196 -57 -315 -160 -411 -107 -101
-234 -155 -416 -180 -78 -10 -230 -14 -578 -14 l-473 0 0 590 0 590 471 0
c264 0 524 -5 592 -11z m190 -1650 c216 -20 354 -66 495 -166 151 -107 217
-255 229 -513 11 -239 -46 -409 -181 -545 -156 -156 -341 -225 -686 -255 -63
-5 -339 -10 -612 -10 l-498 0 0 750 0 750 566 0 c332 0 616 -5 687 -11z"/>
</g>
</svg>
